# xmcd
#
# Track frame offsets:
#	187
#	52562
#	80142
#	117330
#	150297
#	177400
#	229612
#	263800
#
# Disc length: 4070 seconds
#
# Revision: 1
# Processed by: cddbd v1.5.1PL0 Copyright (c) Steve Scherf et al.
# Submitted via: CDex 1.50Beta5
#
DISCID=570fe408
DTITLE=クラウディオ・アバト／ロンドン交響楽団 - ウィリアム・テル序曲／ロッシーニ、ヴェルディ序曲集
DYEAR=1978
DGENRE=Classical
TTITLE0=歌劇「セミラーミデ」序曲
TTITLE1=歌劇「絹のはしご」序曲
TTITLE2=歌劇「イタリアのトルコ人」序曲」
TTITLE3=歌劇「セビリャの理髪師」序曲
TTITLE4=歌劇「タンクレーディ」序曲
TTITLE5=歌劇「ウィリアム・テル」序曲
TTITLE6=歌劇「運命の力」序曲
TTITLE7=歌劇「シチリアの晩鐘」序曲
EXTD=
EXTT0=
EXTT1=
EXTT2=
EXTT3=
EXTT4=
EXTT5=
EXTT6=
EXTT7=
PLAYORDER=
